<svg width="32" height="32" viewBox="0 0 32 32" fill="none" xmlns="http://www.w3.org/2000/svg">
<path d="M13.9993 23.3333H17.9993V20H21.3327V16H17.9993V12.6667H13.9993V16H10.666V20H13.9993V23.3333ZM9.33268 28C8.59935 28 7.97179 27.7391 7.45002 27.2173C6.92824 26.6956 6.6669 26.0676 6.66602 25.3333V10.6667C6.66602 9.93333 6.92735 9.30578 7.45002 8.784C7.97268 8.26222 8.60024 8.00089 9.33268 8H22.666C23.3993 8 24.0273 8.26133 24.55 8.784C25.0727 9.30667 25.3336 9.93422 25.3327 10.6667V25.3333C25.3327 26.0667 25.0718 26.6947 24.55 27.2173C24.0282 27.74 23.4002 28.0009 22.666 28H9.33268ZM7.99935 6.66667V4H23.9993V6.66667H7.99935Z" fill="#0060E5"/>
</svg>
