<svg width="292" height="234" viewBox="0 0 292 234" fill="none" xmlns="http://www.w3.org/2000/svg">
<path d="M121.448 18.1593C132.647 17.3354 144.596 19.1103 154.191 25.273C158.256 27.8847 166.41 34.3668 168.491 38.8242C169.999 36.8656 171.814 34.9865 173.531 33.2082C183.568 22.8138 196.704 18.2962 210.917 18.0512C224.676 17.8141 238.42 22.1244 248.424 31.9018C256.579 39.8745 262.07 50.8894 263.79 62.1753C264.297 65.4991 264.386 69.0495 264.424 72.4121C264.903 115.333 232.147 159.683 203.406 189.096C201.666 190.876 199.585 192.356 197.733 194.022C192.826 198.436 187.682 202.742 182.043 206.206C172.142 212.288 159.999 215.835 148.418 215.938C135.82 216.049 123.308 212.053 114.207 203.066C94.3015 183.41 97.8053 153.203 97.5934 127.74C97.5293 120.036 96.5994 111.489 90.811 105.816C86.9532 102.035 82.2953 100.467 76.946 100.534C72.0794 100.595 67.6378 102.109 63.7319 104.994C52.4404 113.334 52.9254 126.844 52.9594 139.396L52.9669 161.267C52.9678 165.176 52.9564 169.021 52.8382 172.985C52.3726 188.604 28.0746 190.209 25.2554 175.323C24.7939 172.887 24.9771 168.947 24.9504 166.306C24.902 160.108 24.8979 153.911 24.9381 147.714L24.9757 95.9195C24.8811 90.7889 24.3689 85.212 28.6713 81.6003C34.262 76.9068 43.3138 76.4102 48.2643 82.3612C50.9674 85.6107 51.0424 90.5147 50.6592 94.5192C56.3573 86.1975 64.0996 80.465 73.9149 77.8126C83.5439 75.2107 96.3341 76.6831 104.997 81.691C110.409 84.8203 114.197 88.7485 117.582 93.9732C119.647 97.1601 121.502 100.757 122.685 104.375C127.122 117.942 125.887 135.867 125.893 150.165C125.895 157.309 125.977 164.653 127.843 171.596C130.001 179.622 133.477 186.958 140.952 191.257C147.702 195.139 157.061 195.502 164.449 193.47C171.936 191.412 178.747 187.448 184.895 182.764C202.702 169.2 222.918 142.521 234.047 122.979C243.943 105.605 252.77 80.141 247.242 60.1011C244.769 51.1323 239.027 42.7693 230.867 38.1307C218.795 31.2672 204.82 31.1445 192.721 37.906C190.365 39.2227 187.965 40.6274 185.981 42.4779C184.034 44.2937 182.1 46.5656 180.511 48.6965C177.891 52.2081 176.236 55.9119 171.565 57.1464C163.188 59.36 159.854 52.3276 155.473 47.1378C152.619 43.7567 149.375 40.5792 145.55 38.311C137.109 33.306 126.338 31.4203 116.786 33.8963C103.335 37.3832 95.3776 44.5926 90.6205 57.5876C89.7696 59.9121 89.4475 63.8487 88.3475 65.71C87.3538 65.9661 84.5332 65.9115 83.3303 66.0057C80.1033 66.2584 76.3536 66.4586 73.2328 67.2365C75.345 40.0109 93.8813 19.8248 121.448 18.1593Z" fill="#0060E5"/>
</svg>
