<svg width="16" height="16" viewBox="0 0 16 16" fill="none" xmlns="http://www.w3.org/2000/svg">
<path d="M6.63993 6.09116L7.2306 4.02516C7.45193 3.25182 8.54793 3.25182 8.76927 4.02516L9.35927 6.09116C9.39662 6.22185 9.46666 6.34087 9.56278 6.43698C9.65889 6.5331 9.77791 6.60314 9.9086 6.64049L11.9746 7.23049C12.7479 7.45182 12.7479 8.54782 11.9746 8.76916L9.9086 9.35916C9.77791 9.39651 9.65889 9.46655 9.56278 9.56267C9.46666 9.65878 9.39662 9.7778 9.35927 9.90849L8.76927 11.9745C8.54793 12.7478 7.45193 12.7478 7.2306 11.9745L6.6406 9.90849C6.60324 9.7778 6.53321 9.65878 6.43709 9.56267C6.34098 9.46655 6.22196 9.39651 6.09127 9.35916L4.02527 8.76916C3.25193 8.54782 3.25193 7.45182 4.02527 7.23049L6.09127 6.64049C6.22196 6.60314 6.34098 6.5331 6.43709 6.43698C6.53321 6.34087 6.60324 6.22185 6.6406 6.09116M12.0693 11.0045C12.2619 10.4425 13.0719 10.4418 13.2639 11.0045L13.2813 11.0625L13.4786 11.8545L14.2706 12.0525C14.9106 12.2125 14.9106 13.1205 14.2706 13.2805L13.4786 13.4785L13.2813 14.2705C13.1213 14.9098 12.2126 14.9098 12.0526 14.2705L11.8546 13.4785L11.0626 13.2805C10.4226 13.1205 10.4226 12.2118 11.0626 12.0525L11.8546 11.8545L12.0526 11.0625L12.0693 11.0045ZM12.6666 12.5312C12.6282 12.5825 12.5827 12.6281 12.5313 12.6665C12.5827 12.7049 12.6282 12.7504 12.6666 12.8018C12.705 12.7504 12.7505 12.7049 12.8019 12.6665C12.7505 12.6279 12.7049 12.5821 12.6666 12.5305M2.73593 1.67049C2.9346 1.08982 3.7926 1.10916 3.94793 1.72849L4.14527 2.52049L4.93727 2.71849C5.57727 2.87849 5.57727 3.78649 4.93727 3.94649L4.14527 4.14449L3.94793 4.93649C3.78793 5.57582 2.87927 5.57582 2.71927 4.93649L2.52127 4.14449L1.72927 3.94649C1.08927 3.78649 1.08927 2.87782 1.72927 2.71849L2.52127 2.52049L2.71927 1.72849L2.73593 1.67049ZM3.33327 3.19782C3.29485 3.24897 3.24927 3.29433 3.19793 3.33249C3.24937 3.37106 3.29495 3.41687 3.33327 3.46849C3.37159 3.41687 3.41717 3.37106 3.4686 3.33249C3.41722 3.29412 3.37163 3.24921 3.33327 3.19782Z" fill="white"/>
</svg>
