<svg width="24" height="24" viewBox="0 0 24 24" fill="none" xmlns="http://www.w3.org/2000/svg">
<path d="M14.0395 14.863L13.1535 17.962C12.8215 19.122 11.1775 19.122 10.8455 17.962L9.96052 14.863C9.90449 14.667 9.79943 14.4884 9.65526 14.3443C9.51109 14.2001 9.33256 14.095 9.13652 14.039L6.03752 13.154C4.87752 12.822 4.87752 11.178 6.03752 10.846L9.13652 9.96101C9.33256 9.90498 9.51109 9.79992 9.65526 9.65575C9.79943 9.51158 9.90449 9.33305 9.96052 9.13701L10.8455 6.03801C11.1775 4.87801 12.8215 4.87801 13.1535 6.03801L14.0385 9.13701C14.0946 9.33305 14.1996 9.51158 14.3438 9.65575C14.488 9.79992 14.6665 9.90498 14.8625 9.96101L17.9615 10.846C19.1215 11.178 19.1215 12.822 17.9615 13.154L14.8625 14.039C14.6665 14.095 14.488 14.2001 14.3438 14.3443C14.1996 14.4884 14.0946 14.667 14.0385 14.863M19.5695 19.716L19.1935 21.224C19.1435 21.426 18.8565 21.426 18.8055 21.224L18.4285 19.716C18.4197 19.681 18.4015 19.649 18.376 19.6235C18.3505 19.598 18.3185 19.5798 18.2835 19.571L16.7755 19.194C16.5735 19.144 16.5735 18.857 16.7755 18.806L18.2835 18.429C18.3185 18.4202 18.3505 18.402 18.376 18.3765C18.4015 18.351 18.4197 18.319 18.4285 18.284L18.8055 16.776C18.8555 16.574 19.1425 16.574 19.1935 16.776L19.5705 18.284C19.5794 18.319 19.5975 18.351 19.623 18.3765C19.6486 18.402 19.6805 18.4202 19.7155 18.429L21.2235 18.806C21.4255 18.856 21.4255 19.143 21.2235 19.194L19.7155 19.571C19.6805 19.5798 19.6486 19.598 19.623 19.6235C19.5975 19.649 19.5784 19.681 19.5695 19.716ZM5.56952 5.71601L5.19352 7.22401C5.14352 7.42601 4.85552 7.42601 4.80552 7.22401L4.42852 5.71601C4.41969 5.68101 4.40155 5.64904 4.37602 5.62351C4.35049 5.59799 4.31853 5.57984 4.28352 5.57101L2.77552 5.19401C2.57352 5.14401 2.57352 4.85601 2.77552 4.80601L4.28352 4.42901C4.31853 4.42018 4.35049 4.40204 4.37602 4.37651C4.40155 4.35098 4.41969 4.31902 4.42852 4.28401L4.80552 2.77601C4.85552 2.57401 5.14352 2.57401 5.19352 2.77601L5.57052 4.28401C5.57935 4.31902 5.5975 4.35098 5.62303 4.37651C5.64855 4.40204 5.68052 4.42018 5.71552 4.42901L7.22352 4.80601C7.42552 4.85601 7.42552 5.14401 7.22352 5.19401L5.71552 5.57101C5.68052 5.57984 5.64855 5.59799 5.62303 5.62351C5.5975 5.64904 5.57836 5.68101 5.56952 5.71601Z" stroke="#0060E5" stroke-width="1.5" stroke-miterlimit="10" stroke-linecap="round" stroke-linejoin="round"/>
</svg>
