<svg width="24" height="24" viewBox="0 0 24 24" fill="none" xmlns="http://www.w3.org/2000/svg">
<path d="M9.96002 9.13722L10.846 6.03822C11.178 4.87822 12.822 4.87822 13.154 6.03822L14.039 9.13722C14.0951 9.33326 14.2001 9.51179 14.3443 9.65596C14.4885 9.80013 14.667 9.90519 14.863 9.96122L17.962 10.8462C19.122 11.1782 19.122 12.8222 17.962 13.1542L14.863 14.0392C14.667 14.0953 14.4885 14.2003 14.3443 14.3445C14.2001 14.4887 14.0951 14.6672 14.039 14.8632L13.154 17.9622C12.822 19.1222 11.178 19.1222 10.846 17.9622L9.96102 14.8632C9.90499 14.6672 9.79993 14.4887 9.65576 14.3445C9.51159 14.2003 9.33306 14.0953 9.13702 14.0392L6.03802 13.1542C4.87802 12.8222 4.87802 11.1782 6.03802 10.8462L9.13702 9.96122C9.33306 9.90519 9.51159 9.80013 9.65576 9.65596C9.79993 9.51179 9.90499 9.33326 9.96102 9.13722M18.104 16.5072C18.393 15.6642 19.608 15.6632 19.896 16.5072L19.922 16.5942L20.218 17.7822L21.406 18.0792C22.366 18.3192 22.366 19.6812 21.406 19.9212L20.218 20.2182L19.922 21.4062C19.682 22.3652 18.319 22.3652 18.079 21.4062L17.782 20.2182L16.594 19.9212C15.634 19.6812 15.634 18.3182 16.594 18.0792L17.782 17.7822L18.079 16.5942L18.104 16.5072ZM19 18.7972C18.9425 18.8743 18.8741 18.9427 18.797 19.0002C18.8741 19.0578 18.9425 19.1261 19 19.2032C19.0576 19.1261 19.1259 19.0578 19.203 19.0002C19.1259 18.9424 19.0575 18.8737 19 18.7962M4.10402 2.50622C4.40202 1.63522 5.68902 1.66422 5.92202 2.59322L6.21802 3.78122L7.40602 4.07822C8.36602 4.31822 8.36602 5.68022 7.40602 5.92022L6.21802 6.21722L5.92202 7.40522C5.68202 8.36422 4.31902 8.36422 4.07902 7.40522L3.78202 6.21722L2.59402 5.92022C1.63402 5.68022 1.63402 4.31722 2.59402 4.07822L3.78202 3.78122L4.07902 2.59322L4.10402 2.50622ZM5.00002 4.79722C4.9424 4.87395 4.87403 4.94198 4.79702 4.99922C4.87417 5.05708 4.94255 5.12579 5.00002 5.20322C5.0575 5.12579 5.12587 5.05708 5.20302 4.99922C5.12595 4.94167 5.05757 4.8743 5.00002 4.79722Z" fill="#444444"/>
</svg>
